Coordinates
version=1
nRows=9
nColumns=36
inDegrees=yes

Units are S.I. units (second, meters, Newtons, ...)
If the header above contains a line with 'inDegrees', this indicates whether rotational values are in degrees (yes) or radians (no).

endheader
time	pelvis_tilt	pelvis_list	pelvis_rotation	pelvis_tx	pelvis_ty	pelvis_tz	hip_flexion_r	hip_adduction_r	hip_rotation_r	knee_angle_r	knee_angle_r_beta	ankle_angle_r	subtalar_angle_r	mtp_angle_r	hip_flexion_l	hip_adduction_l	hip_rotation_l	knee_angle_l	knee_angle_l_beta	ankle_angle_l	subtalar_angle_l	mtp_angle_l	lumbar_extension	lumbar_bending	lumbar_rotation	arm_flex_r	arm_add_r	arm_rot_r	elbow_flex_r	pro_sup_r	arm_flex_l	arm_add_l	arm_rot_l	elbow_flex_l	pro_sup_l
      1.37916670	     -4.08959381	      1.08102441	     -2.34126542	     -0.92617908	      1.23426596	     -0.07705286	      7.32513389	     -0.12893631	      2.66885585	     14.13079017	      0.24662881	      4.91476966	    -13.98072949	     -7.49999987	      3.36433165	      2.16230174	      4.90343171	      9.10604007	      0.15893038	      7.07986827	     -9.10466192	     -7.49999987	     -7.23369055	      1.18866563	      1.18955865	     -1.46481935	     -5.01225914	     -4.25848291	     29.11996046	     78.31272885	      0.20830580	     -4.99341803	      1.10819561	     31.10833337	     84.54314837
      1.38333330	     -4.02238943	      1.07290810	     -2.31359532	     -0.92479068	      1.23216364	     -0.07626052	      7.17385901	     -0.09779900	      2.78632323	     14.02729274	      0.24482244	      4.78173107	    -14.09640245	     -7.49999987	      3.27961987	      2.18054966	      5.01527791	      9.03624818	      0.15771228	      7.05798573	     -9.07768515	     -7.49999987	     -7.35628842	      1.20437662	      1.09599225	     -1.51372677	     -5.01323642	     -4.32580785	     29.31920966	     77.95374455	      0.12537845	     -5.02469394	      1.10241053	     31.27184838	     84.09637099
      1.38750000	     -4.02082759	      1.07038992	     -2.33916138	     -0.92583412	      1.22915083	     -0.07644853	      7.24512321	     -0.06223575	      2.92647689	     14.16367767	      0.24720281	      4.88516125	    -14.22334781	     -7.49999987	      3.32971988	      2.18615558	      4.94873015	      9.08603424	      0.15858121	      7.31290817	     -8.87976864	     -7.49999987	     -7.43912956	      1.20466758	      1.09444090	     -1.51764876	     -4.99149235	     -4.29909404	     29.46056592	     75.90013973	      0.07993905	     -5.03538246	      1.21243727	     31.45638678	     81.53824564
      1.39166670	     -4.08210078	      1.07627753	     -2.28948644	     -0.92607502	      1.22700608	     -0.07717922	      7.39014131	     -0.05701833	      2.97643257	     14.33916707	      0.25026568	      4.99898868	    -14.34039107	     -7.49999987	      3.50402943	      2.21149163	      5.12060082	      9.24101150	      0.16128608	      7.46981905	     -8.90275630	     -7.49999987	     -7.40873022	      1.21737448	      1.00165450	     -1.60627068	     -5.01675191	     -4.19551709	     29.66663231	     75.22221817	      0.02732537	     -5.11039354	      1.44183513	     31.58928229	     80.70574831
      1.39583330	     -4.17483588	      1.08489898	     -2.23077848	     -0.92601756	      1.22932716	     -0.07715429	      7.55693559	     -0.06725080	      3.05495186	     14.50214007	      0.25311009	      5.15304451	    -14.36759896	     -7.49999987	      3.69851774	      2.22804508	      5.25188965	      9.35762561	      0.16332138	      7.59422204	     -8.90611653	     -7.49999987	     -7.36398922	      1.19395400	      0.94844367	     -1.69481694	     -5.01372200	     -4.12890130	     29.78290382	     75.06542960	      0.01185965	     -5.16606414	      1.66650250	     31.62835441	     80.54947226
      1.40000000	     -4.16184796	      1.08882941	     -2.19162289	     -0.92473696	      1.22870300	     -0.07688369	      7.61122532	     -0.05223769	      3.21229400	     14.66866288	      0.25601646	      5.22932960	    -14.56720714	     -7.49999987	      3.71630285	      2.24524267	      5.35016306	      9.45854588	      0.16508277	      7.88132644	     -8.74562198	     -7.49999987	     -7.37713987	      1.19590755	      0.93536196	     -1.72707682	     -5.02055473	     -4.06123674	     29.73263091	     75.08786413	      0.06021014	     -5.22062771	      1.89773203	     31.50836838	     80.67460275
      1.40416670	     -4.33853506	      1.06288798	     -2.23820168	     -0.92588726	      1.23035659	     -0.07672164	      7.78081035	      0.00729715	      3.37188514	     14.66562758	      0.25596349	      5.24593791	    -14.68616980	     -7.49999987	      3.87387527	      2.19142886	      5.21038693	      9.46405599	      0.16517894	      8.03257968	     -8.50115395	     -7.49999987	     -7.09027622	      1.22584364	      1.14759218	     -1.96458176	     -5.14266488	     -4.08103361	     29.90628162	     78.98206688	      0.15048848	     -5.42302979	      2.64027486	     31.28750944	     85.94865073
      1.40833330	     -4.39761588	      1.09620721	     -2.22505643	     -0.92570870	      1.22780602	     -0.07711650	      7.86235344	     -0.02351052	      3.41171971	     14.71760857	      0.25687073	      5.46135989	    -14.58527303	     -7.49999987	      3.97490369	      2.23751329	      5.31262923	      9.62036650	      0.16790707	      8.11983221	     -8.65921716	     -7.49999987	     -7.00795069	      1.19550413	      0.99723159	     -1.96343978	     -4.90056053	     -5.58203861	     29.97233638	     82.01484266	     -0.11213386	     -5.13340248	      0.38816147	     31.66653223	     89.67602771
      1.41250000	     -4.49547392	      1.10217760	     -2.21511331	     -0.92621988	      1.22717491	     -0.07687267	      7.99896046	      0.01545144	      3.62798864	     14.76885643	      0.25776517	      5.35027936	    -14.87573164	     -7.49999987	      4.12912278	      2.24928241	      5.39779923	      9.73586732	      0.16992294	      8.13794565	     -8.91339347	     -7.49999987	     -6.90875459	      1.20354805	      0.98561666	     -1.99112696	     -4.92885501	     -5.53947617	     30.14398723	     81.44246566	     -0.21478511	     -5.14925890	      0.39645777	     31.91089492	     89.39773808
